<svg width="24" height="24" viewBox="0 0 24 24" fill="none" xmlns="http://www.w3.org/2000/svg">
<g clip-path="url(#clip0_83_11)">
<path d="M11.7534 15.9095C12.2794 15.8786 12.7862 15.987 13.2662 16.1972L14.2701 16.666C14.4522 16.7416 14.6504 16.8011 14.8402 16.8544C15.2937 16.9817 15.7823 17.0451 16.2532 17.0449L16.7644 17.0196L17.2632 16.9869L17.2549 16.9979C17.2206 17.036 17.1719 17.0678 17.1345 17.1044C16.8999 17.3338 16.6544 17.5462 16.3906 17.7417C16.0632 17.9845 15.7194 18.2114 15.3554 18.3965C14.5519 18.8049 13.6638 19.0527 12.7687 19.1448L12.2598 19.1771L11.3905 19.1583C11.0422 19.1364 10.6928 19.0749 10.3527 18.9978L10.0039 18.9125C9.91614 18.8909 9.8247 18.8729 9.73854 18.8458C9.55304 18.7876 9.37017 18.7146 9.19014 18.6413C8.38904 18.3155 7.64242 17.8561 7.02205 17.2505C6.9308 17.1614 6.83377 17.0707 6.74951 16.9752C6.87751 16.9971 7.01412 17.0039 7.14367 17.0155C7.71095 17.0662 8.28926 17.0296 8.84345 16.8941C9.23957 16.7972 9.6167 16.6527 9.98751 16.4848C10.4202 16.289 10.8429 16.0614 11.3139 15.9678L11.7534 15.9095Z" fill="#03A696"/>
<path d="M11.8955 11.7369C11.993 11.7275 12.0932 11.7365 12.1903 11.7466C13.0451 11.8353 13.6782 12.5181 14.2971 13.0463C14.5878 13.2945 14.893 13.5273 15.226 13.7166C15.6372 13.9505 16.0848 14.1215 16.5545 14.1915C16.6702 14.2088 16.7887 14.2136 16.9054 14.2189C17.2212 14.233 17.5287 14.2146 17.8398 14.1562C18.2062 14.0874 18.5725 13.9781 18.932 13.8791C18.8906 14.0342 18.8552 14.1887 18.8029 14.341C18.6748 14.7135 18.5143 15.0645 18.3352 15.4147C18.2763 15.5297 18.209 15.7153 18.0966 15.7861C18.0483 15.8165 17.9878 15.8301 17.9331 15.8434C17.8302 15.8685 17.7265 15.8855 17.622 15.9019L17.2302 15.9611C17.0141 15.9869 16.7997 16.0143 16.5818 16.023C15.789 16.0547 15.0308 15.872 14.3047 15.5633C14.0019 15.4345 13.7113 15.2783 13.4023 15.1634C13.1899 15.0843 12.9736 15.037 12.7551 14.9807C12.6996 14.9664 12.6424 14.9618 12.5859 14.9529C12.4216 14.9268 12.2531 14.9098 12.0867 14.9035C11.931 14.9 11.7713 14.8969 11.6158 14.9079C11.2534 14.9335 10.8826 15.0093 10.5392 15.1276C10.2562 15.2251 9.98731 15.3682 9.71484 15.4912C9.37175 15.6461 9.02222 15.7865 8.65841 15.8856L8.41441 15.9404C8.27184 15.9738 8.12006 15.9888 7.97437 16.0021C7.84109 16.0142 7.70972 16.028 7.57569 16.0302C7.387 16.0332 7.20066 16.0164 7.01322 15.9984C6.76059 15.9742 6.50275 15.9406 6.25541 15.8829C6.1641 15.8616 6.04667 15.8583 5.96185 15.8171L5.95312 15.8128L5.92627 15.7989C5.85061 15.7526 5.7977 15.6363 5.75202 15.5618C5.43068 15.0371 5.20353 14.473 5.0603 13.8753C5.23252 13.9091 5.39083 13.9763 5.55938 14.0218C5.76917 14.0784 5.98536 14.1342 6.20011 14.1678C6.41989 14.2022 6.64536 14.2181 6.86767 14.224C7.16281 14.2319 7.47416 14.1918 7.76034 14.121C7.90431 14.0854 8.05144 14.047 8.19028 13.9944C8.89306 13.7285 9.47934 13.2315 10.0482 12.7554C10.4815 12.3928 10.8984 11.9948 11.4529 11.8245C11.5977 11.78 11.7459 11.7574 11.8955 11.7369Z" fill="#03A696"/>
<path d="M11.7879 4.72996C11.9441 4.72107 12.1014 4.72778 12.2577 4.73214C13.4385 4.76505 14.6114 5.10514 15.6336 5.69706C15.9463 5.87815 16.2353 6.08653 16.5207 6.30693C16.6705 6.42267 16.8115 6.55132 16.95 6.68046C18.0694 7.72452 18.7858 9.12308 19.0577 10.6241C19.1112 10.9193 19.1485 11.2156 19.1729 11.5145C19.1853 11.6666 19.1841 11.8218 19.2034 11.9728L19.1958 11.9775L18.4337 11.9787L18.0983 11.9875C17.8244 11.9852 17.553 11.9553 17.2881 11.8854C17.1763 11.856 17.072 11.8085 16.9656 11.7644C16.5854 11.6066 16.2515 11.3659 15.9408 11.099C15.5464 10.7601 15.1915 10.3783 14.8369 9.99862C14.2566 9.37721 13.6519 8.72108 12.8498 8.3883C12.7107 8.33058 12.5718 8.2994 12.427 8.2623L12.1962 8.22115L12.1739 8.21927C10.8508 8.12352 9.8774 9.26805 9.05637 10.1372L8.53678 10.6472L8.07565 11.0861C7.61343 11.4849 7.02111 11.8727 6.40522 11.9567C6.12869 11.9944 5.85449 11.9793 5.57714 11.9785C5.31806 11.9778 5.06535 11.9995 4.80629 11.9802L4.80066 11.6836C4.84557 10.0188 5.51846 8.34049 6.64188 7.10933C6.84854 6.88286 7.06756 6.65885 7.29834 6.45699C8.24453 5.62933 9.45315 5.04871 10.6915 4.83342C11.054 4.77039 11.4208 4.74625 11.7879 4.72996Z" fill="#03A696"/>
</g>
<defs>
<clipPath id="clip0_83_11">
<rect width="16" height="16" fill="white" transform="translate(4 4)"/>
</clipPath>
</defs>
</svg>
