<svg width="32" height="32" viewBox="0 0 33 32" fill="none" xmlns="http://www.w3.org/2000/svg">
<path d="M16.2343 2C8.47881 2 2.19043 8.43125 2.19043 16.3562C2.19043 22.7 6.21549 28.075 11.7954 29.975C11.8737 29.9919 11.9536 30.0003 12.0337 30C12.554 30 12.7547 29.6187 12.7547 29.2875C12.7547 28.9437 12.7421 28.0437 12.7358 26.8437C12.2713 26.9523 11.7961 27.0089 11.3189 27.0125C8.61674 27.0125 8.00232 24.9187 8.00232 24.9187C7.36282 23.2625 6.4412 22.8187 6.4412 22.8187C5.21863 21.9625 6.43493 21.9375 6.52897 21.9375H6.53524C7.94589 22.0625 8.6857 23.425 8.6857 23.425C9.38789 24.65 10.3283 24.9937 11.1685 24.9937C11.724 24.9827 12.2709 24.8549 12.7735 24.6187C12.8989 23.6937 13.2625 23.0625 13.6637 22.7C10.5478 22.3375 7.26878 21.1062 7.26878 15.6062C7.26878 14.0375 7.81423 12.7562 8.71078 11.7562C8.56658 11.3938 8.08382 9.93125 8.84871 7.95625C8.95131 7.93178 9.05676 7.92126 9.16219 7.925C9.67002 7.925 10.8174 8.11875 12.7108 9.43125C15.0114 8.78957 17.4446 8.78957 19.7452 9.43125C21.6386 8.11875 22.786 7.925 23.2938 7.925C23.3992 7.92126 23.5047 7.93178 23.6073 7.95625C24.3722 9.93125 23.8894 11.3938 23.7452 11.7562C24.6418 12.7625 25.1872 14.0437 25.1872 15.6062C25.1872 21.1187 21.902 22.3312 18.7734 22.6875C19.275 23.1312 19.7264 24.0062 19.7264 25.3437C19.7264 27.2625 19.7076 28.8125 19.7076 29.2812C19.7076 29.6187 19.902 30 20.4223 30C20.5066 30.0004 20.5906 29.992 20.6731 29.975C26.2593 28.075 30.2781 22.6938 30.2781 16.3562C30.2781 8.43125 23.9897 2 16.2343 2Z" fill="black"/>
</svg>
