<svg width="247" height="36" viewBox="0 0 247 36" fill="none" xmlns="http://www.w3.org/2000/svg">
<path d="M17.445 26.7959C18.6288 26.7263 19.7689 26.9702 20.8489 27.4432L23.1077 28.498C23.5175 28.6681 23.9635 28.802 24.3905 28.9218C25.4108 29.2083 26.5101 29.3511 27.5698 29.3505L28.7198 29.2937L29.8421 29.22L29.8235 29.2447C29.7463 29.3304 29.6367 29.4021 29.5527 29.4843C29.0247 30.0006 28.4724 30.4784 27.8789 30.9184C27.1421 31.4646 26.3686 31.9752 25.5496 32.3915C23.7419 33.3106 21.7436 33.8682 19.7296 34.0753L18.5845 34.1481L16.6287 34.1058C15.845 34.0564 15.0589 33.918 14.2936 33.7445L13.5088 33.5526C13.3113 33.504 13.1056 33.4635 12.9117 33.4026C12.4943 33.2716 12.0829 33.1073 11.6778 32.9425C9.87535 32.2094 8.19544 31.1756 6.79961 29.813C6.59429 29.6127 6.37599 29.4086 6.1864 29.1937C6.47439 29.2429 6.78177 29.2584 7.07325 29.2844C8.34964 29.3986 9.65084 29.3162 10.8978 29.0112C11.789 28.7932 12.6376 28.4681 13.4719 28.0904C14.4454 27.6498 15.3966 27.1376 16.4564 26.927L17.445 26.7959Z" fill="white"/>
<path d="M17.765 17.4083C17.9842 17.3871 18.2099 17.4075 18.4283 17.4302C20.3516 17.6298 21.7761 19.166 23.1684 20.3545C23.8227 20.9129 24.5094 21.4367 25.2585 21.8627C26.1837 22.389 27.191 22.7736 28.2478 22.9314C28.508 22.9702 28.7746 22.9811 29.0373 22.9928C29.7478 23.0246 30.4396 22.9832 31.1397 22.8518C31.9641 22.6971 32.7881 22.451 33.597 22.2283C33.5039 22.5774 33.4244 22.925 33.3065 23.2676C33.0183 24.1058 32.6572 24.8956 32.2542 25.6835C32.1218 25.9423 31.9704 26.3598 31.7173 26.5191C31.6087 26.5875 31.4726 26.6181 31.3496 26.6481C31.118 26.7045 30.8848 26.7426 30.6495 26.7797L29.7681 26.9129C29.2818 26.9708 28.7994 27.0325 28.3091 27.0521C26.5252 27.1234 24.8193 26.7123 23.1856 26.0178C22.5043 25.7281 21.8505 25.3766 21.1553 25.1179C20.6773 24.94 20.1907 24.8335 19.699 24.7069C19.5742 24.6747 19.4455 24.6645 19.3184 24.6443C18.9486 24.5857 18.5695 24.5475 18.1951 24.5334C17.8448 24.5253 17.4854 24.5184 17.1356 24.5431C16.3203 24.6008 15.4859 24.7712 14.7134 25.0375C14.0766 25.2569 13.4715 25.5788 12.8585 25.8556C12.0865 26.2042 11.3001 26.5199 10.4815 26.7431L9.93247 26.8663C9.61171 26.9414 9.2702 26.9752 8.9424 27.005C8.64252 27.0323 8.34693 27.0635 8.04536 27.0683C7.62081 27.0751 7.20154 27.0372 6.77981 26.9968C6.2114 26.9423 5.63124 26.8667 5.07472 26.7369C4.86928 26.6889 4.60507 26.6815 4.41423 26.5889L4.39459 26.5791L4.33416 26.5479C4.16392 26.4438 4.04488 26.1821 3.94211 26.0143C3.2191 24.8339 2.70801 23.5645 2.38574 22.2197C2.77322 22.2959 3.12943 22.447 3.50867 22.5493C3.98068 22.6768 4.46713 22.8023 4.95031 22.8778C5.44481 22.9553 5.95213 22.991 6.45233 23.0044C7.11639 23.0222 7.81691 22.9319 8.46083 22.7726C8.78476 22.6924 9.11579 22.606 9.42819 22.4878C11.0094 21.8895 12.3286 20.7711 13.6086 19.7001C14.5835 18.8842 15.5214 17.9887 16.7691 17.6054C17.095 17.5053 17.4283 17.4545 17.765 17.4083Z" fill="white"/>
<path d="M17.5227 1.64266C17.874 1.62264 18.2281 1.63776 18.5796 1.64755C21.2366 1.7216 23.8756 2.48681 26.1755 3.81863C26.8791 4.22608 27.5293 4.69493 28.1714 5.19083C28.5085 5.45125 28.8258 5.74072 29.1373 6.03128C31.6561 8.38042 33.268 11.5272 33.8798 14.9046C34.0001 15.5687 34.0841 16.2352 34.1389 16.9078C34.1668 17.25 34.1642 17.5993 34.2076 17.9391L34.1904 17.9496L32.4756 17.9524L31.7211 17.9721C31.1048 17.967 30.4941 17.8997 29.898 17.7425C29.6465 17.6762 29.4118 17.5694 29.1725 17.4701C28.3171 17.1152 27.5658 16.5736 26.8667 15.973C25.9793 15.2105 25.1808 14.3514 24.3829 13.4971C23.0772 12.099 21.7167 10.6227 19.912 9.87393C19.599 9.74406 19.2864 9.67389 18.9606 9.59043L18.4412 9.49782L18.3912 9.49361C15.4143 9.27817 13.2241 11.8534 11.3767 13.809L10.2077 14.9565L9.17012 15.9439C8.13013 16.8413 6.7974 17.7138 5.41166 17.9028C4.78945 17.9876 4.1725 17.9537 3.54847 17.9518C2.96553 17.9502 2.39694 17.9991 1.81406 17.9558L1.80139 17.2882C1.90244 13.5425 3.41643 9.76635 5.94413 6.99625C6.40912 6.48668 6.90192 5.98266 7.42117 5.52847C9.55009 3.66625 12.2695 2.35985 15.0557 1.87544C15.8715 1.73362 16.6967 1.67931 17.5227 1.64266Z" fill="white"/>
<path d="M54.44 25.2C53.3467 25.2 52.34 25.02 51.42 24.66C50.5 24.3 49.7 23.8 49.02 23.16C48.34 22.5067 47.8133 21.7467 47.44 20.88C47.0667 20 46.88 19.04 46.88 18C46.88 16.96 47.0667 16.0067 47.44 15.14C47.8133 14.26 48.34 13.5 49.02 12.86C49.7 12.2067 50.5 11.7 51.42 11.34C52.34 10.98 53.34 10.8 54.42 10.8C55.5133 10.8 56.5133 10.98 57.42 11.34C58.34 11.7 59.14 12.2067 59.82 12.86C60.5 13.5 61.0267 14.26 61.4 15.14C61.7733 16.0067 61.96 16.96 61.96 18C61.96 19.04 61.7733 20 61.4 20.88C61.0267 21.76 60.5 22.52 59.82 23.16C59.14 23.8 58.34 24.3 57.42 24.66C56.5133 25.02 55.52 25.2 54.44 25.2ZM54.42 22.92C55.1267 22.92 55.78 22.8 56.38 22.56C56.98 22.32 57.5 21.98 57.94 21.54C58.38 21.0867 58.72 20.5667 58.96 19.98C59.2133 19.38 59.34 18.72 59.34 18C59.34 17.28 59.2133 16.6267 58.96 16.04C58.72 15.44 58.38 14.92 57.94 14.48C57.5 14.0267 56.98 13.68 56.38 13.44C55.78 13.2 55.1267 13.08 54.42 13.08C53.7133 13.08 53.06 13.2 52.46 13.44C51.8733 13.68 51.3533 14.0267 50.9 14.48C50.46 14.92 50.1133 15.44 49.86 16.04C49.62 16.6267 49.5 17.28 49.5 18C49.5 18.7067 49.62 19.36 49.86 19.96C50.1133 20.56 50.46 21.0867 50.9 21.54C51.34 21.98 51.86 22.32 52.46 22.56C53.06 22.8 53.7133 22.92 54.42 22.92ZM69.3759 25.14C68.2559 25.14 67.2559 24.9067 66.3759 24.44C65.5093 23.96 64.8293 23.3067 64.3359 22.48C63.8426 21.6533 63.5959 20.7133 63.5959 19.66C63.5959 18.5933 63.8426 17.6533 64.3359 16.84C64.8293 16.0133 65.5093 15.3667 66.3759 14.9C67.2559 14.4333 68.2559 14.2 69.3759 14.2C70.4159 14.2 71.3293 14.4133 72.1159 14.84C72.9159 15.2533 73.5226 15.8667 73.9359 16.68L72.0159 17.8C71.6959 17.2933 71.3026 16.92 70.8359 16.68C70.3826 16.44 69.8893 16.32 69.3559 16.32C68.7426 16.32 68.1893 16.4533 67.6959 16.72C67.2026 16.9867 66.8159 17.3733 66.5359 17.88C66.2559 18.3733 66.1159 18.9667 66.1159 19.66C66.1159 20.3533 66.2559 20.9533 66.5359 21.46C66.8159 21.9533 67.2026 22.3333 67.6959 22.6C68.1893 22.8667 68.7426 23 69.3559 23C69.8893 23 70.3826 22.88 70.8359 22.64C71.3026 22.4 71.6959 22.0267 72.0159 21.52L73.9359 22.64C73.5226 23.44 72.9159 24.06 72.1159 24.5C71.3293 24.9267 70.4159 25.14 69.3759 25.14ZM80.9608 25.14C79.7741 25.14 78.7341 24.9067 77.8408 24.44C76.9608 23.96 76.2741 23.3067 75.7808 22.48C75.3008 21.6533 75.0608 20.7133 75.0608 19.66C75.0608 18.5933 75.2941 17.6533 75.7608 16.84C76.2408 16.0133 76.8941 15.3667 77.7208 14.9C78.5608 14.4333 79.5141 14.2 80.5808 14.2C81.6208 14.2 82.5474 14.4267 83.3608 14.88C84.1741 15.3333 84.8141 15.9733 85.2808 16.8C85.7474 17.6267 85.9808 18.6 85.9808 19.72C85.9808 19.8267 85.9741 19.9467 85.9608 20.08C85.9608 20.2133 85.9541 20.34 85.9408 20.46H77.0408V18.8H84.6208L83.6408 19.32C83.6541 18.7067 83.5274 18.1667 83.2608 17.7C82.9941 17.2333 82.6274 16.8667 82.1608 16.6C81.7074 16.3333 81.1808 16.2 80.5808 16.2C79.9674 16.2 79.4274 16.3333 78.9608 16.6C78.5074 16.8667 78.1474 17.24 77.8808 17.72C77.6274 18.1867 77.5008 18.74 77.5008 19.38V19.78C77.5008 20.42 77.6474 20.9867 77.9408 21.48C78.2341 21.9733 78.6474 22.3533 79.1808 22.62C79.7141 22.8867 80.3274 23.02 81.0208 23.02C81.6208 23.02 82.1608 22.9267 82.6408 22.74C83.1208 22.5533 83.5474 22.26 83.9208 21.86L85.2608 23.4C84.7808 23.96 84.1741 24.3933 83.4408 24.7C82.7208 24.9933 81.8941 25.14 80.9608 25.14ZM94.6692 25V22.84L94.5292 22.38V18.6C94.5292 17.8667 94.3092 17.3 93.8692 16.9C93.4292 16.4867 92.7626 16.28 91.8692 16.28C91.2692 16.28 90.6759 16.3733 90.0892 16.56C89.5159 16.7467 89.0292 17.0067 88.6292 17.34L87.6492 15.52C88.2226 15.08 88.9026 14.7533 89.6892 14.54C90.4892 14.3133 91.3159 14.2 92.1692 14.2C93.7159 14.2 94.9092 14.5733 95.7492 15.32C96.6026 16.0533 97.0292 17.1933 97.0292 18.74V25H94.6692ZM91.3092 25.14C90.5092 25.14 89.8092 25.0067 89.2092 24.74C88.6092 24.46 88.1426 24.08 87.8092 23.6C87.4892 23.1067 87.3292 22.5533 87.3292 21.94C87.3292 21.34 87.4692 20.8 87.7492 20.32C88.0426 19.84 88.5159 19.46 89.1692 19.18C89.8226 18.9 90.6892 18.76 91.7692 18.76H94.8692V20.42H91.9492C91.0959 20.42 90.5226 20.56 90.2292 20.84C89.9359 21.1067 89.7892 21.44 89.7892 21.84C89.7892 22.2933 89.9692 22.6533 90.3292 22.92C90.6892 23.1867 91.1892 23.32 91.8292 23.32C92.4426 23.32 92.9892 23.18 93.4692 22.9C93.9626 22.62 94.3159 22.2067 94.5292 21.66L94.9492 23.16C94.7092 23.7867 94.2759 24.2733 93.6492 24.62C93.0359 24.9667 92.2559 25.14 91.3092 25.14ZM106.298 14.2C107.151 14.2 107.911 14.3667 108.578 14.7C109.258 15.0333 109.791 15.5467 110.178 16.24C110.564 16.92 110.758 17.8 110.758 18.88V25H108.258V19.2C108.258 18.2533 108.031 17.5467 107.578 17.08C107.138 16.6133 106.518 16.38 105.718 16.38C105.131 16.38 104.611 16.5 104.158 16.74C103.704 16.98 103.351 17.34 103.098 17.82C102.858 18.2867 102.738 18.88 102.738 19.6V25H100.238V14.32H102.618V17.2L102.198 16.32C102.571 15.64 103.111 15.12 103.818 14.76C104.538 14.3867 105.364 14.2 106.298 14.2ZM117.009 25V13.2H112.369V11H124.249V13.2H119.609V25H117.009ZM129.887 25.14C128.7 25.14 127.66 24.9067 126.767 24.44C125.887 23.96 125.2 23.3067 124.707 22.48C124.227 21.6533 123.987 20.7133 123.987 19.66C123.987 18.5933 124.22 17.6533 124.687 16.84C125.167 16.0133 125.82 15.3667 126.647 14.9C127.487 14.4333 128.44 14.2 129.507 14.2C130.547 14.2 131.473 14.4267 132.287 14.88C133.1 15.3333 133.74 15.9733 134.207 16.8C134.673 17.6267 134.907 18.6 134.907 19.72C134.907 19.8267 134.9 19.9467 134.887 20.08C134.887 20.2133 134.88 20.34 134.867 20.46H125.967V18.8H133.547L132.567 19.32C132.58 18.7067 132.453 18.1667 132.187 17.7C131.92 17.2333 131.553 16.8667 131.087 16.6C130.633 16.3333 130.107 16.2 129.507 16.2C128.893 16.2 128.353 16.3333 127.887 16.6C127.433 16.8667 127.073 17.24 126.807 17.72C126.553 18.1867 126.427 18.74 126.427 19.38V19.78C126.427 20.42 126.573 20.9867 126.867 21.48C127.16 21.9733 127.573 22.3533 128.107 22.62C128.64 22.8867 129.253 23.02 129.947 23.02C130.547 23.02 131.087 22.9267 131.567 22.74C132.047 22.5533 132.473 22.26 132.847 21.86L134.187 23.4C133.707 23.96 133.1 24.3933 132.367 24.7C131.647 24.9933 130.82 25.14 129.887 25.14ZM142.208 25.14C141.088 25.14 140.088 24.9067 139.208 24.44C138.341 23.96 137.661 23.3067 137.168 22.48C136.675 21.6533 136.428 20.7133 136.428 19.66C136.428 18.5933 136.675 17.6533 137.168 16.84C137.661 16.0133 138.341 15.3667 139.208 14.9C140.088 14.4333 141.088 14.2 142.208 14.2C143.248 14.2 144.161 14.4133 144.948 14.84C145.748 15.2533 146.355 15.8667 146.768 16.68L144.848 17.8C144.528 17.2933 144.135 16.92 143.668 16.68C143.215 16.44 142.721 16.32 142.188 16.32C141.575 16.32 141.021 16.4533 140.528 16.72C140.035 16.9867 139.648 17.3733 139.368 17.88C139.088 18.3733 138.948 18.9667 138.948 19.66C138.948 20.3533 139.088 20.9533 139.368 21.46C139.648 21.9533 140.035 22.3333 140.528 22.6C141.021 22.8667 141.575 23 142.188 23C142.721 23 143.215 22.88 143.668 22.64C144.135 22.4 144.528 22.0267 144.848 21.52L146.768 22.64C146.355 23.44 145.748 24.06 144.948 24.5C144.161 24.9267 143.248 25.14 142.208 25.14ZM154.891 14.2C155.745 14.2 156.505 14.3667 157.171 14.7C157.851 15.0333 158.385 15.5467 158.771 16.24C159.158 16.92 159.351 17.8 159.351 18.88V25H156.851V19.2C156.851 18.2533 156.625 17.5467 156.171 17.08C155.731 16.6133 155.111 16.38 154.311 16.38C153.725 16.38 153.205 16.5 152.751 16.74C152.298 16.98 151.945 17.34 151.691 17.82C151.451 18.2867 151.331 18.88 151.331 19.6V25H148.831V10.16H151.331V17.2L150.791 16.32C151.165 15.64 151.705 15.12 152.411 14.76C153.131 14.3867 153.958 14.2 154.891 14.2ZM167.103 25.2C166.009 25.2 164.963 25.0467 163.963 24.74C162.963 24.42 162.169 24.0133 161.583 23.52L162.483 21.5C163.043 21.94 163.736 22.3067 164.563 22.6C165.389 22.8933 166.236 23.04 167.103 23.04C167.836 23.04 168.429 22.96 168.883 22.8C169.336 22.64 169.669 22.4267 169.883 22.16C170.096 21.88 170.203 21.5667 170.203 21.22C170.203 20.7933 170.049 20.4533 169.743 20.2C169.436 19.9333 169.036 19.7267 168.543 19.58C168.063 19.42 167.523 19.2733 166.923 19.14C166.336 19.0067 165.743 18.8533 165.143 18.68C164.556 18.4933 164.016 18.26 163.523 17.98C163.043 17.6867 162.649 17.3 162.343 16.82C162.036 16.34 161.883 15.7267 161.883 14.98C161.883 14.22 162.083 13.5267 162.483 12.9C162.896 12.26 163.516 11.7533 164.343 11.38C165.183 10.9933 166.243 10.8 167.523 10.8C168.363 10.8 169.196 10.9067 170.023 11.12C170.849 11.3333 171.569 11.64 172.183 12.04L171.363 14.06C170.736 13.6867 170.089 13.4133 169.423 13.24C168.756 13.0533 168.116 12.96 167.503 12.96C166.783 12.96 166.196 13.0467 165.743 13.22C165.303 13.3933 164.976 13.62 164.763 13.9C164.563 14.18 164.463 14.5 164.463 14.86C164.463 15.2867 164.609 15.6333 164.903 15.9C165.209 16.1533 165.603 16.3533 166.083 16.5C166.576 16.6467 167.123 16.7933 167.723 16.94C168.323 17.0733 168.916 17.2267 169.503 17.4C170.103 17.5733 170.643 17.8 171.123 18.08C171.616 18.36 172.009 18.74 172.303 19.22C172.609 19.7 172.763 20.3067 172.763 21.04C172.763 21.7867 172.556 22.48 172.143 23.12C171.743 23.7467 171.123 24.2533 170.283 24.64C169.443 25.0133 168.383 25.2 167.103 25.2ZM179.901 25.14C178.808 25.14 177.834 24.9067 176.981 24.44C176.128 23.96 175.454 23.3067 174.961 22.48C174.468 21.6533 174.221 20.7133 174.221 19.66C174.221 18.5933 174.468 17.6533 174.961 16.84C175.454 16.0133 176.128 15.3667 176.981 14.9C177.834 14.4333 178.808 14.2 179.901 14.2C181.008 14.2 181.988 14.4333 182.841 14.9C183.708 15.3667 184.381 16.0067 184.861 16.82C185.354 17.6333 185.601 18.58 185.601 19.66C185.601 20.7133 185.354 21.6533 184.861 22.48C184.381 23.3067 183.708 23.96 182.841 24.44C181.988 24.9067 181.008 25.14 179.901 25.14ZM179.901 23C180.514 23 181.061 22.8667 181.541 22.6C182.021 22.3333 182.394 21.9467 182.661 21.44C182.941 20.9333 183.081 20.34 183.081 19.66C183.081 18.9667 182.941 18.3733 182.661 17.88C182.394 17.3733 182.021 16.9867 181.541 16.72C181.061 16.4533 180.521 16.32 179.921 16.32C179.308 16.32 178.761 16.4533 178.281 16.72C177.814 16.9867 177.441 17.3733 177.161 17.88C176.881 18.3733 176.741 18.9667 176.741 19.66C176.741 20.34 176.881 20.9333 177.161 21.44C177.441 21.9467 177.814 22.3333 178.281 22.6C178.761 22.8667 179.301 23 179.901 23ZM187.992 25V10.16H190.492V25H187.992ZM198.293 25.14C197.386 25.14 196.586 24.9733 195.893 24.64C195.199 24.2933 194.659 23.7733 194.273 23.08C193.886 22.3733 193.693 21.4867 193.693 20.42V14.32H196.193V20.08C196.193 21.04 196.406 21.76 196.833 22.24C197.273 22.7067 197.893 22.94 198.693 22.94C199.279 22.94 199.786 22.82 200.213 22.58C200.653 22.34 200.993 21.98 201.233 21.5C201.486 21.02 201.613 20.4267 201.613 19.72V14.32H204.113V25H201.733V22.12L202.153 23C201.793 23.6933 201.266 24.2267 200.573 24.6C199.879 24.96 199.119 25.14 198.293 25.14ZM211.406 25.14C210.233 25.14 209.326 24.84 208.686 24.24C208.046 23.6267 207.726 22.7267 207.726 21.54V11.96H210.226V21.48C210.226 21.9867 210.353 22.38 210.606 22.66C210.873 22.94 211.239 23.08 211.706 23.08C212.266 23.08 212.733 22.9333 213.106 22.64L213.806 24.42C213.513 24.66 213.153 24.84 212.726 24.96C212.299 25.08 211.859 25.14 211.406 25.14ZM205.966 16.4V14.4H213.086V16.4H205.966ZM215.863 25V14.32H218.363V25H215.863ZM217.123 12.56C216.656 12.56 216.269 12.4133 215.963 12.12C215.669 11.8267 215.523 11.4733 215.523 11.06C215.523 10.6333 215.669 10.28 215.963 10C216.269 9.70667 216.656 9.56 217.123 9.56C217.589 9.56 217.969 9.7 218.263 9.98C218.569 10.2467 218.723 10.5867 218.723 11C218.723 11.44 218.576 11.8133 218.283 12.12C217.989 12.4133 217.603 12.56 217.123 12.56ZM226.444 25.14C225.351 25.14 224.377 24.9067 223.524 24.44C222.671 23.96 221.997 23.3067 221.504 22.48C221.011 21.6533 220.764 20.7133 220.764 19.66C220.764 18.5933 221.011 17.6533 221.504 16.84C221.997 16.0133 222.671 15.3667 223.524 14.9C224.377 14.4333 225.351 14.2 226.444 14.2C227.551 14.2 228.531 14.4333 229.384 14.9C230.251 15.3667 230.924 16.0067 231.404 16.82C231.897 17.6333 232.144 18.58 232.144 19.66C232.144 20.7133 231.897 21.6533 231.404 22.48C230.924 23.3067 230.251 23.96 229.384 24.44C228.531 24.9067 227.551 25.14 226.444 25.14ZM226.444 23C227.057 23 227.604 22.8667 228.084 22.6C228.564 22.3333 228.937 21.9467 229.204 21.44C229.484 20.9333 229.624 20.34 229.624 19.66C229.624 18.9667 229.484 18.3733 229.204 17.88C228.937 17.3733 228.564 16.9867 228.084 16.72C227.604 16.4533 227.064 16.32 226.464 16.32C225.851 16.32 225.304 16.4533 224.824 16.72C224.357 16.9867 223.984 17.3733 223.704 17.88C223.424 18.3733 223.284 18.9667 223.284 19.66C223.284 20.34 223.424 20.9333 223.704 21.44C223.984 21.9467 224.357 22.3333 224.824 22.6C225.304 22.8667 225.844 23 226.444 23ZM240.595 14.2C241.448 14.2 242.208 14.3667 242.875 14.7C243.555 15.0333 244.088 15.5467 244.475 16.24C244.861 16.92 245.055 17.8 245.055 18.88V25H242.555V19.2C242.555 18.2533 242.328 17.5467 241.875 17.08C241.435 16.6133 240.815 16.38 240.015 16.38C239.428 16.38 238.908 16.5 238.455 16.74C238.001 16.98 237.648 17.34 237.395 17.82C237.155 18.2867 237.035 18.88 237.035 19.6V25H234.535V14.32H236.915V17.2L236.495 16.32C236.868 15.64 237.408 15.12 238.115 14.76C238.835 14.3867 239.661 14.2 240.595 14.2Z" fill="white"/>
</svg>
