<svg width="32" height="32" viewBox="0 0 32 32" fill="none" xmlns="http://www.w3.org/2000/svg">
<g clip-path="url(#clip0_72_74)">
<path d="M25.8515 9.4857C25.8515 7.19998 25.8514 4.91427 25.6914 3.4057C25.6927 3.03597 25.6041 2.67147 25.4335 2.34347C25.2629 2.01547 25.0153 1.73374 24.7119 1.52248C24.4084 1.31121 24.0583 1.17669 23.6915 1.13048C23.3246 1.08426 22.9521 1.12772 22.6057 1.25713C17.6686 2.67427 7.58859 6.21713 3.36002 12.2971C-1.21141 18.7428 2.30859 26.1257 3.97716 29.0057C4.22027 29.4128 4.55203 29.7598 4.94776 30.021C5.34348 30.2822 5.793 30.4508 6.26288 30.5143C8.36751 30.8936 10.5171 30.9552 12.64 30.6971" stroke="#053039" stroke-width="2.5" stroke-linecap="round" stroke-linejoin="round"/>
<path d="M11.4285 19.6113C9.1275 23.0022 7.00647 26.5119 5.07422 30.1256" stroke="#053039" stroke-width="2.5" stroke-linecap="round" stroke-linejoin="round"/>
<path d="M24.3885 30.7886C24.1374 30.8794 23.8625 30.8794 23.6114 30.7886C21.7052 30.0334 20.0695 28.7234 18.9162 27.0281C17.7629 25.3328 17.1451 23.3304 17.1428 21.28V17.0514C17.1456 16.9063 17.1778 16.7633 17.2374 16.631C17.297 16.4986 17.3828 16.3798 17.4896 16.2815C17.5964 16.1832 17.722 16.1076 17.8588 16.0592C17.9956 16.0109 18.1408 15.9907 18.2857 16H29.7143C29.9913 16.0058 30.2553 16.1185 30.4513 16.3144C30.6472 16.5103 30.7598 16.7744 30.7657 17.0514V21.28C30.7707 23.3198 30.1663 25.3147 29.0301 27.0088C27.894 28.7029 26.2777 30.0191 24.3885 30.7886Z" stroke="#053039" stroke-width="2.5" stroke-linecap="round" stroke-linejoin="round"/>
</g>
<defs>
<clipPath id="clip0_72_74">
<rect width="32" height="32" fill="white"/>
</clipPath>
</defs>
</svg>
