<svg width="32" height="32" viewBox="0 0 32 32" fill="none" xmlns="http://www.w3.org/2000/svg">
<g clip-path="url(#clip0_71_45)">
<path d="M13.7143 23.0403V27.6117C13.7083 27.7835 13.6359 27.9463 13.5122 28.0657C13.3886 28.1851 13.2233 28.2518 13.0514 28.2517H8.25142C7.46218 28.1188 6.74772 27.7047 6.23999 27.086" stroke="#053039" stroke-width="2" stroke-linecap="round" stroke-linejoin="round"/>
<path d="M6.23996 27.1088C6.23996 27.1088 3.74854 24.9373 9.53139 19.1545H12.1143L8.25139 12.7773H1.14282L3.08568 15.2688C3.08568 15.2688 1.78282 15.4973 1.78282 17.3031C2.46619 20.88 3.99433 24.2419 6.23996 27.1088V27.1088Z" stroke="#053039" stroke-width="2" stroke-linecap="round" stroke-linejoin="round"/>
<path d="M23.6571 14.5602L27.04 12.2745C27.1156 12.2411 27.1973 12.2239 27.28 12.2239C27.3626 12.2239 27.4444 12.2411 27.52 12.2745C27.6083 12.2848 27.6931 12.3148 27.7683 12.3623C27.8434 12.4098 27.907 12.4735 27.9542 12.5488L30.5828 16.4802C30.7399 16.7963 30.8216 17.1444 30.8216 17.4974C30.8216 17.8503 30.7399 18.1984 30.5828 18.5145" stroke="#053039" stroke-width="2" stroke-linecap="round" stroke-linejoin="round"/>
<path d="M30.6743 18.2859C30.6743 18.2859 29.9429 21.2573 22.3772 20.5716V18.583L17.9429 24.3887L22.1486 30.8573L22.3772 27.8173C22.3772 27.8173 23.2229 28.8459 24.6629 27.8173C27.0779 24.9189 29.0992 21.714 30.6743 18.2859V18.2859Z" stroke="#053039" stroke-width="2" stroke-linecap="round" stroke-linejoin="round"/>
<path d="M9.94287 9.78307L6.85715 8.36592C6.70496 8.28729 6.58771 8.15453 6.52849 7.99378C6.46926 7.83303 6.47235 7.65593 6.53715 7.49735L9.14287 2.28592C9.31695 1.97738 9.56037 1.71352 9.85391 1.51518C10.1475 1.31685 10.4831 1.18945 10.8343 1.14307" stroke="#053039" stroke-width="2" stroke-linecap="round" stroke-linejoin="round"/>
<path d="M10.8344 1.14295C10.8344 1.14295 13.6458 1.14295 17.2115 8.0001L15.3601 10.2858H23.0401L25.7601 3.10867L22.5601 4.09152C22.5136 3.59558 22.334 3.12141 22.0403 2.71909C21.7466 2.31677 21.3497 2.00123 20.8915 1.80581C19.316 1.28425 17.6575 1.0595 16.0001 1.14295H10.8344Z" stroke="#053039" stroke-width="2" stroke-linecap="round" stroke-linejoin="round"/>
</g>
<defs>
<clipPath id="clip0_71_45">
<rect width="32" height="32" fill="white"/>
</clipPath>
</defs>
</svg>
